<svg xmlns="http://www.w3.org/2000/svg" viewBox="25 25 55 55" x="0px" y="0px">
    <path fill="white" xmlns="http://www.w3.org/2000/svg" d="M31.18579,55.862c2.61747-.35016,5.01532-.77859,7.431-.94016a5.32931,5.32931,0,0,1,2.85483.8028,2.04453,2.04453,0,0,1,.58522,1.79637c-.07009.33595-1.10877.79725-1.5678.67216-3.34993-.91279-6.35343-.097-9.29016,1.497-1.90409,1.03347-2.93579.38453-2.94031-1.86174-.01286-6.4.03932-12.80012.06711-19.20019.00494-1.13714.04865-2.27516.01731-3.41119-.08347-3.02555,1.13968-4.99808,4.044-5.70371a59.12,59.12,0,0,1,8.10928-1.29955c2.92817-.29041,5.3006,1.2417,7.52631,2.89795a1.992,1.992,0,0,0,2.53475.1048c4.285-2.39791,8.835-3.84894,13.739-2.437a28.04923,28.04923,0,0,1,5.54576,2.7907,1.75514,1.75514,0,0,1,.70058,1.17927c.29567,2.2478.57565,4.50328.68772,6.76472A1.73086,1.73086,0,0,1,70.10181,40.799a1.76462,1.76462,0,0,1-1.35324-1.03416,15.60671,15.60671,0,0,1-.43377-3.1893A5.051,5.051,0,0,0,64.277,31.601c-4.788-1.46676-9.07117.01647-13.15343,2.398a2.05334,2.05334,0,0,0-.71574,1.475c-.089,1.43042-.03818,2.87146-.00036,4.30719.02681,1.01792.01183,2.10252-1.31639,2.08419-1.31893-.0182-1.31086-1.14912-1.31367-2.13478-.00392-1.37679.03357-2.75517-.025-4.12952-.02136-.50114-.10681-1.20225-.43655-1.45468-2.13039-1.631-4.246-3.49992-7.1711-3.22706a50.37564,50.37564,0,0,0-7.04514,1.18916,2.77888,2.77888,0,0,0-2.22576,3.17332c.17962,6.45975.17741,12.92457.24873,19.38741C31.12779,55.13685,31.17155,55.60413,31.18579,55.862ZM71.651,58.55081c0-2.03095-.06179-4.06424.0146-6.09232.11223-2.97939-1.09733-4.92578-4.06819-5.049-5.35635-.2222-10.74115-.15532-16.095.13822-2.43206.13333-4.73679,1.59276-4.77992,4.30679a147.28224,147.28224,0,0,0,.5754,15.68777c.22267,2.44253,2.07663,3.99479,4.73942,4.06647a95.09831,95.09831,0,0,0,9.84181.109A22.66517,22.66517,0,0,0,68.57427,69.969a4.919,4.919,0,0,0,3.16105-5.13825c-.09837-2.08893-.02023-4.18616-.02023-6.27972Zm-2.65089,5.75684a3.06834,3.06834,0,0,1-2.405,3.50814,38.38985,38.38985,0,0,1-7.03676,1.11484c-2.37.13658-4.76346-.18709-7.148-.22817a2.17555,2.17555,0,0,1-2.34255-2.00965c-.33623-2.418-.5733-4.85569-.713-7.29318-.1128-1.96805-.032-3.94786-.01938-5.92232A2.79664,2.79664,0,0,1,52.127,50.36424c4.71069-.20067,9.43106-.3351,14.14375-.25889,2.31325.03739,2.70569.73657,2.70084,3.07294-.00384,1.85518-.00077,3.71037-.00077,5.56556C68.97349,60.599,68.8779,62.46055,69.00012,64.30765Zm-15.66357-2.91c-.63081.78571-1.24642,1.66465-.23517,2.48586,1.12537.91382,1.82944-.01147,2.46922-.84648.36274-.47346.71493-.95579,1.0942-1.41571,2.97253-3.60478,3.847-4.22581-1.30759-7.90065-.4909-.35-1.44261-.05335-2.18039-.05689a5.35533,5.35533,0,0,0,.55525,1.99961,17.78928,17.78928,0,0,0,2.46846,2.13641C55.18166,59.08074,54.26368,60.24288,53.33655,61.39766Zm11.2988,1.72714A2.2285,2.2285,0,0,0,65.747,61.77918c.07558-.24113-.58284-1.02294-.91591-1.02768a23.79375,23.79375,0,0,0-4.22708.31837,1.40113,1.40113,0,0,0-.78184,1.14949,2.16162,2.16162,0,0,0,1.1124,1.09236c.32685.17033.8139.0331,1.71359.0331A6.66363,6.66363,0,0,0,64.63535,63.1248Z"/>
</svg>